<svg width="160" height="150" viewBox="0 0 160 150" fill="none" xmlns="http://www.w3.org/2000/svg">
<rect x="0.5" y="0.5" width="159" height="149" rx="31.5" fill="#6A6A6A"/>
<path d="M37.6562 93.9688L29.4375 116H28.5156L37.0312 93.25H37.8438L37.6562 93.9688ZM45.6562 116L37.4375 93.9688L37.2656 93.25H38.0625L46.5781 116H45.6562ZM43.25 108.359V109.203H31.8594V108.359H43.25ZM66.6406 93.25V116H65.7969L51.1094 94.6875V116H50.25V93.25H51.1094L65.7969 114.516V93.25H66.6406ZM88.9375 105.688V113.562C88.6979 113.906 88.2448 114.292 87.5781 114.719C86.9219 115.146 86.0573 115.521 84.9844 115.844C83.9219 116.156 82.651 116.312 81.1719 116.312C79.8802 116.312 78.6979 116.073 77.625 115.594C76.5521 115.115 75.625 114.432 74.8438 113.547C74.0625 112.651 73.4583 111.594 73.0312 110.375C72.6146 109.146 72.4062 107.792 72.4062 106.312V102.594C72.4062 101.156 72.6094 99.849 73.0156 98.6719C73.4323 97.4948 74.0156 96.4792 74.7656 95.625C75.526 94.7604 76.4271 94.099 77.4688 93.6406C78.5104 93.1719 79.6562 92.9375 80.9062 92.9375C82.5521 92.9375 83.9427 93.224 85.0781 93.7969C86.2135 94.3698 87.099 95.1458 87.7344 96.125C88.3802 97.0938 88.7708 98.1875 88.9062 99.4062H88.0625C87.9062 98.4167 87.5677 97.4948 87.0469 96.6406C86.526 95.7865 85.7656 95.099 84.7656 94.5781C83.776 94.0469 82.4896 93.7812 80.9062 93.7812C79.75 93.7812 78.6979 94 77.75 94.4375C76.8125 94.8646 76.0052 95.4688 75.3281 96.25C74.6615 97.0312 74.1458 97.9583 73.7812 99.0312C73.4271 100.104 73.25 101.281 73.25 102.562V106.312C73.25 107.656 73.4323 108.885 73.7969 110C74.1719 111.115 74.7083 112.083 75.4062 112.906C76.1042 113.719 76.9375 114.349 77.9062 114.797C78.8854 115.245 79.974 115.469 81.1719 115.469C82.4115 115.469 83.5052 115.344 84.4531 115.094C85.4115 114.833 86.1979 114.526 86.8125 114.172C87.4375 113.807 87.8646 113.474 88.0938 113.172V106.547H81.1406V105.688H88.9375ZM94.7969 93.25H102.047C103.495 93.25 104.781 93.5052 105.906 94.0156C107.031 94.5156 107.911 95.2552 108.547 96.2344C109.193 97.2031 109.516 98.3958 109.516 99.8125C109.516 100.917 109.276 101.917 108.797 102.812C108.318 103.698 107.677 104.427 106.875 105C106.073 105.573 105.177 105.932 104.188 106.078L103.703 106.266H95L94.9688 105.422H102.812C104.115 105.422 105.198 105.151 106.062 104.609C106.927 104.068 107.578 103.37 108.016 102.516C108.453 101.651 108.672 100.75 108.672 99.8125C108.672 98.6146 108.401 97.5938 107.859 96.75C107.318 95.8958 106.547 95.2396 105.547 94.7812C104.557 94.3229 103.391 94.0938 102.047 94.0938H95.6406V116H94.7969V93.25ZM109.578 116L103.344 105.969L104.328 105.938L110.469 115.781V116H109.578ZM113.578 93.25L121.453 106.594L129.422 93.25H130.453L121.875 107.359V116H121.031V107.359L112.453 93.25H113.578Z" fill="white"/>
<path d="M80 22C67.3177 22 57 32.3177 57 45C57 57.6822 67.3177 68 80 68C92.6822 68 103 57.6822 103 45C103 32.3177 92.6822 22 80 22Z" fill="#E27022"/>
<path d="M80 68C92.7025 68 103 57.7025 103 45C103 32.2975 92.7025 22 80 22C67.2975 22 57 32.2975 57 45C57 57.7025 67.2975 68 80 68Z" stroke="black" stroke-width="2" stroke-miterlimit="10"/>
<path d="M72 55C73.5805 52.4425 76.9043 50.8651 80.4211 50.9962C83.6499 51.1166 86.5622 52.6595 88 55" stroke="black" stroke-width="2" stroke-miterlimit="10" stroke-linecap="round" stroke-linejoin="round"/>
<path d="M74 41.9252C74 43.5819 72.6552 44.9252 71 44.9252C69.3447 44.9252 68 43.5819 68 41.9252C68 40.2699 69.3447 38.9252 71 38.9252C72.6552 38.9252 74 40.27 74 41.9252Z" fill="black"/>
<path d="M92 41.9252C92 43.5819 90.6553 44.9252 89 44.9252C87.3447 44.9252 86 43.5819 86 41.9252C86 40.2699 87.3447 38.9252 89 38.9252C90.6553 38.9252 92 40.27 92 41.9252Z" fill="black"/>
<path d="M67 33L74 37" stroke="black" stroke-width="2" stroke-miterlimit="10" stroke-linecap="round" stroke-linejoin="round"/>
<path d="M93 33L86 37" stroke="black" stroke-width="2" stroke-miterlimit="10" stroke-linecap="round" stroke-linejoin="round"/>
<rect x="0.5" y="0.5" width="159" height="149" rx="31.5" stroke="black"/>
</svg>
