<svg width="160" height="150" viewBox="0 0 160 150" fill="none" xmlns="http://www.w3.org/2000/svg">
<rect x="0.5" y="0.5" width="159" height="149" rx="31.5" fill="#6A6A6A"/>
<path d="M23.6562 93.9688L15.4375 116H14.5156L23.0312 93.25H23.8438L23.6562 93.9688ZM31.6562 116L23.4375 93.9688L23.2656 93.25H24.0625L32.5781 116H31.6562ZM29.25 108.359V109.203H17.8594V108.359H29.25ZM52.6406 93.25V116H51.7969L37.1094 94.6875V116H36.25V93.25H37.1094L51.7969 114.516V93.25H52.6406ZM58.2656 93.25L65.6094 103.734L72.9531 93.25H74.0156L66.1406 104.391L74.3125 116H73.2656L65.6094 105.047L57.9219 116H56.9062L65.0781 104.391L57.2031 93.25H58.2656ZM79.7812 93.25V116H78.9375V93.25H79.7812ZM102.766 102.922V106.328C102.766 107.807 102.562 109.161 102.156 110.391C101.76 111.609 101.188 112.661 100.438 113.547C99.6979 114.432 98.8021 115.115 97.75 115.594C96.6979 116.073 95.5156 116.312 94.2031 116.312C92.901 116.312 91.7188 116.073 90.6562 115.594C89.6042 115.115 88.6979 114.432 87.9375 113.547C87.1875 112.661 86.6094 111.609 86.2031 110.391C85.8073 109.161 85.6094 107.807 85.6094 106.328V102.922C85.6094 101.432 85.8073 100.078 86.2031 98.8594C86.6094 97.6406 87.1875 96.5885 87.9375 95.7031C88.6875 94.8177 89.5885 94.1354 90.6406 93.6562C91.6927 93.1771 92.8698 92.9375 94.1719 92.9375C95.4844 92.9375 96.6667 93.1771 97.7188 93.6562C98.7708 94.1354 99.6719 94.8177 100.422 95.7031C101.182 96.5885 101.76 97.6406 102.156 98.8594C102.562 100.078 102.766 101.432 102.766 102.922ZM101.922 106.328V102.891C101.922 101.557 101.75 100.339 101.406 99.2344C101.062 98.1198 100.557 97.1562 99.8906 96.3438C99.224 95.5312 98.4115 94.901 97.4531 94.4531C96.4948 94.0052 95.401 93.7812 94.1719 93.7812C92.9531 93.7812 91.8646 94.0052 90.9062 94.4531C89.9583 94.901 89.151 95.5312 88.4844 96.3438C87.8281 97.1562 87.3281 98.1198 86.9844 99.2344C86.6406 100.339 86.4688 101.557 86.4688 102.891V106.328C86.4688 107.672 86.6406 108.901 86.9844 110.016C87.3385 111.13 87.8438 112.094 88.5 112.906C89.1667 113.719 89.9792 114.349 90.9375 114.797C91.8958 115.245 92.9844 115.469 94.2031 115.469C95.4323 115.469 96.5208 115.245 97.4688 114.797C98.4271 114.349 99.2344 113.719 99.8906 112.906C100.557 112.094 101.062 111.13 101.406 110.016C101.75 108.901 101.922 107.672 101.922 106.328ZM122.438 93.25H123.281V108.672C123.281 110.37 122.943 111.786 122.266 112.922C121.589 114.057 120.661 114.906 119.484 115.469C118.318 116.031 116.995 116.312 115.516 116.312C114.036 116.312 112.708 116.031 111.531 115.469C110.365 114.906 109.438 114.057 108.75 112.922C108.073 111.786 107.734 110.37 107.734 108.672V93.25H108.578V108.672C108.578 110.13 108.88 111.37 109.484 112.391C110.099 113.401 110.927 114.167 111.969 114.688C113.021 115.208 114.203 115.469 115.516 115.469C116.828 115.469 118.005 115.208 119.047 114.688C120.099 114.167 120.927 113.401 121.531 112.391C122.135 111.37 122.438 110.13 122.438 108.672V93.25ZM142.938 110.547C142.938 109.828 142.812 109.188 142.562 108.625C142.312 108.062 141.911 107.557 141.359 107.109C140.807 106.661 140.083 106.25 139.188 105.875C138.302 105.5 137.214 105.135 135.922 104.781C134.766 104.469 133.724 104.135 132.797 103.781C131.87 103.417 131.078 103 130.422 102.531C129.776 102.062 129.281 101.505 128.938 100.859C128.594 100.203 128.422 99.4167 128.422 98.5C128.422 97.6354 128.609 96.8594 128.984 96.1719C129.37 95.4844 129.901 94.901 130.578 94.4219C131.266 93.9427 132.068 93.5781 132.984 93.3281C133.901 93.0677 134.896 92.9375 135.969 92.9375C137.448 92.9375 138.755 93.2188 139.891 93.7812C141.026 94.3438 141.917 95.1302 142.562 96.1406C143.219 97.1406 143.547 98.3125 143.547 99.6562H142.703C142.703 98.5312 142.422 97.526 141.859 96.6406C141.297 95.7552 140.51 95.0573 139.5 94.5469C138.5 94.0365 137.323 93.7812 135.969 93.7812C134.542 93.7812 133.328 94 132.328 94.4375C131.328 94.875 130.568 95.4531 130.047 96.1719C129.526 96.8802 129.266 97.6458 129.266 98.4688C129.266 99.0729 129.37 99.6354 129.578 100.156C129.797 100.677 130.161 101.161 130.672 101.609C131.182 102.047 131.885 102.464 132.781 102.859C133.677 103.245 134.802 103.615 136.156 103.969C137.281 104.26 138.307 104.589 139.234 104.953C140.172 105.318 140.979 105.75 141.656 106.25C142.344 106.75 142.87 107.349 143.234 108.047C143.609 108.734 143.797 109.557 143.797 110.516C143.797 111.443 143.594 112.266 143.188 112.984C142.792 113.703 142.24 114.312 141.531 114.812C140.823 115.302 140 115.677 139.062 115.938C138.135 116.188 137.141 116.312 136.078 116.312C135.109 116.312 134.13 116.198 133.141 115.969C132.151 115.74 131.245 115.37 130.422 114.859C129.599 114.339 128.938 113.646 128.438 112.781C127.938 111.917 127.688 110.849 127.688 109.578H128.531C128.531 110.714 128.766 111.661 129.234 112.422C129.703 113.182 130.312 113.786 131.062 114.234C131.823 114.672 132.641 114.99 133.516 115.188C134.401 115.375 135.255 115.469 136.078 115.469C137.411 115.469 138.594 115.26 139.625 114.844C140.656 114.427 141.464 113.849 142.047 113.109C142.641 112.37 142.938 111.516 142.938 110.547Z" fill="white"/>
<path d="M80 69C93.2548 69 104 58.2548 104 45C104 31.7452 93.2548 21 80 21C66.7452 21 56 31.7452 56 45C56 58.2548 66.7452 69 80 69Z" fill="#FCEA2B"/>
<path d="M53.2458 36.724C52.992 35.683 53.1588 34.6055 53.7156 33.6901C55.5478 30.6765 60.1498 29.525 60.3446 29.4775C60.7499 29.3787 61.158 29.627 61.2568 30.0321C61.3044 30.2273 62.4 34.8428 60.568 37.8574L60.5681 37.8578C59.419 39.7458 56.9473 40.348 55.0587 39.1994C54.1434 38.6445 53.4996 37.765 53.2458 36.724Z" fill="#92D3F5"/>
<path d="M74 40C74 41.6568 72.6552 43 71 43C69.3447 43 68 41.6567 68 40C68 38.3448 69.3447 37 71 37C72.6552 37 74 38.3448 74 40Z" fill="black"/>
<path d="M92 40C92 41.6568 90.6553 43 89 43C87.3447 43 86 41.6567 86 40C86 38.3448 87.3447 37 89 37C90.6553 37 92 38.3448 92 40Z" fill="black"/>
<path d="M70.5 57C72.3768 53.1674 76.3239 50.8035 80.5 51C84.3343 51.1804 87.7926 53.4926 89.5 57" stroke="black" stroke-width="2" stroke-miterlimit="10" stroke-linecap="round" stroke-linejoin="round"/>
<path d="M67.1483 33.2501C67.6355 33.4776 69.776 34.4109 72.3122 33.5828C74.3698 32.911 75.4893 31.4711 75.8518 30.9589" stroke="black" stroke-width="2" stroke-miterlimit="10" stroke-linecap="round" stroke-linejoin="round"/>
<path d="M92.8517 33.2501C92.3645 33.4776 90.224 34.4109 87.6878 33.5828C85.6302 32.911 84.5107 31.4711 84.1482 30.9589" stroke="black" stroke-width="2" stroke-miterlimit="10" stroke-linecap="round" stroke-linejoin="round"/>
<path d="M53.2458 36.724C52.992 35.683 53.1588 34.6055 53.7156 33.6901C55.5478 30.6765 60.1498 29.525 60.3446 29.4775C60.7499 29.3787 61.158 29.627 61.2568 30.0321C61.3044 30.2273 62.4 34.8428 60.568 37.8574L60.5681 37.8578C59.419 39.7458 56.9473 40.348 55.0587 39.1994C54.1434 38.6445 53.4996 37.765 53.2458 36.724Z" stroke="black" stroke-width="2" stroke-miterlimit="10"/>
<path d="M65.9967 26.7451C69.8754 23.7653 74.7308 21.9939 80 21.9939C92.7059 21.9939 103.006 32.2941 103.006 45C103.006 57.7059 92.7059 68.0061 80 68.0061C67.2941 68.0061 56.9939 57.7059 56.9939 45C56.9939 44.604 57.0039 44.2104 57.0237 43.8193" stroke="black" stroke-width="2" stroke-miterlimit="10" stroke-linecap="round"/>
<rect x="0.5" y="0.5" width="159" height="149" rx="31.5" stroke="black"/>
</svg>
