<svg width="160" height="150" viewBox="0 0 160 150" fill="none" xmlns="http://www.w3.org/2000/svg">
<rect x="0.5" y="0.5" width="159" height="149" rx="31.5" fill="#6A6A6A"/>
<path d="M51.4219 116H45.875L45.9062 115.156H51.4219C53.0573 115.156 54.5156 114.766 55.7969 113.984C57.0885 113.203 58.1042 112.125 58.8438 110.75C59.5938 109.375 59.9688 107.797 59.9688 106.016V103.188C59.9688 101.865 59.7552 100.651 59.3281 99.5469C58.901 98.4323 58.3021 97.4688 57.5312 96.6562C56.7604 95.8438 55.8542 95.2135 54.8125 94.7656C53.7708 94.3177 52.6406 94.0938 51.4219 94.0938H45.7812V93.25H51.4219C52.7656 93.25 54.0052 93.4896 55.1406 93.9688C56.2865 94.4479 57.2812 95.1302 58.125 96.0156C58.9792 96.901 59.6406 97.9583 60.1094 99.1875C60.5781 100.406 60.8125 101.755 60.8125 103.234V106.016C60.8125 107.495 60.5781 108.849 60.1094 110.078C59.6406 111.297 58.9792 112.349 58.125 113.234C57.2812 114.12 56.2865 114.802 55.1406 115.281C54.0052 115.76 52.7656 116 51.4219 116ZM45.9688 93.25V116H45.125V93.25H45.9688ZM80.5312 93.25H81.375V108.672C81.375 110.37 81.0365 111.786 80.3594 112.922C79.6823 114.057 78.7552 114.906 77.5781 115.469C76.4115 116.031 75.0885 116.312 73.6094 116.312C72.1302 116.312 70.8021 116.031 69.625 115.469C68.4583 114.906 67.5312 114.057 66.8438 112.922C66.1667 111.786 65.8281 110.37 65.8281 108.672V93.25H66.6719V108.672C66.6719 110.13 66.974 111.37 67.5781 112.391C68.1927 113.401 69.0208 114.167 70.0625 114.688C71.1146 115.208 72.2969 115.469 73.6094 115.469C74.9219 115.469 76.099 115.208 77.1406 114.688C78.1927 114.167 79.0208 113.401 79.625 112.391C80.2292 111.37 80.5312 110.13 80.5312 108.672V93.25ZM99.9375 115.156V116H87.7188V115.156H99.9375ZM88.2656 93.25V116H87.4062V93.25H88.2656ZM116.469 115.156V116H104.25V115.156H116.469ZM104.797 93.25V116H103.938V93.25H104.797Z" fill="white"/>
<path d="M80 22C67.3177 22 57 32.3177 57 45C57 57.6822 67.3177 68 80 68C92.6822 68 103 57.6822 103 45C103 32.3177 92.6822 22 80 22Z" fill="#FCEA2B"/>
<path d="M80 68C92.7025 68 103 57.7025 103 45C103 32.2975 92.7025 22 80 22C67.2975 22 57 32.2975 57 45C57 57.7025 67.2975 68 80 68Z" stroke="black" stroke-width="2" stroke-miterlimit="10"/>
<path d="M73.5 52C74.7841 51.3624 77.4847 50.9692 80.3421 51.0019C82.9656 51.0319 85.3318 51.4165 86.5 52" stroke="black" stroke-width="2" stroke-miterlimit="10" stroke-linecap="round" stroke-linejoin="round"/>
<path d="M91.5 38L86.5 42" stroke="black" stroke-width="2" stroke-miterlimit="10" stroke-linecap="round" stroke-linejoin="round"/>
<path d="M86.5 38L91.5 42" stroke="black" stroke-width="2" stroke-miterlimit="10" stroke-linecap="round" stroke-linejoin="round"/>
<path d="M73.5 38L68.5 42" stroke="black" stroke-width="2" stroke-miterlimit="10" stroke-linecap="round" stroke-linejoin="round"/>
<path d="M68.5 38L73.5 42" stroke="black" stroke-width="2" stroke-miterlimit="10" stroke-linecap="round" stroke-linejoin="round"/>
<rect x="0.5" y="0.5" width="159" height="149" rx="31.5" stroke="black"/>
</svg>
