<svg width="160" height="150" viewBox="0 0 160 150" fill="none" xmlns="http://www.w3.org/2000/svg">
<rect x="0.5" y="0.5" width="159" height="149" rx="31.5" fill="#6A6A6A"/>
<path d="M17.9688 93.25V116H17.125V93.25H17.9688ZM29.625 103.938V104.812H17.3594V103.938H29.625ZM31.2188 93.25V94.0938H17.3594V93.25H31.2188ZM49.2812 115.156V116H35.7344V115.156H49.2812ZM36.2812 93.25V116H35.4375V93.25H36.2812ZM47.6875 103.875V104.719H35.7344V103.875H47.6875ZM49.2812 93.25V94.0938H35.7344V93.25H49.2812ZM60.1875 93.9688L51.9688 116H51.0469L59.5625 93.25H60.375L60.1875 93.9688ZM68.1875 116L59.9688 93.9688L59.7969 93.25H60.5938L69.1094 116H68.1875ZM65.7812 108.359V109.203H54.3906V108.359H65.7812ZM72.7031 93.25H79.9531C81.401 93.25 82.6875 93.5052 83.8125 94.0156C84.9375 94.5156 85.8177 95.2552 86.4531 96.2344C87.099 97.2031 87.4219 98.3958 87.4219 99.8125C87.4219 100.917 87.1823 101.917 86.7031 102.812C86.224 103.698 85.5833 104.427 84.7812 105C83.9792 105.573 83.0833 105.932 82.0938 106.078L81.6094 106.266H72.9062L72.875 105.422H80.7188C82.0208 105.422 83.1042 105.151 83.9688 104.609C84.8333 104.068 85.4844 103.37 85.9219 102.516C86.3594 101.651 86.5781 100.75 86.5781 99.8125C86.5781 98.6146 86.3073 97.5938 85.7656 96.75C85.224 95.8958 84.4531 95.2396 83.4531 94.7812C82.4635 94.3229 81.2969 94.0938 79.9531 94.0938H73.5469V116H72.7031V93.25ZM87.4844 116L81.25 105.969L82.2344 105.938L88.375 115.781V116H87.4844ZM94.5625 93.25V116H93.7188V93.25H94.5625ZM106.219 103.938V104.812H93.9531V103.938H106.219ZM107.812 93.25V94.0938H93.9531V93.25H107.812ZM126.5 93.25H127.344V108.672C127.344 110.37 127.005 111.786 126.328 112.922C125.651 114.057 124.724 114.906 123.547 115.469C122.38 116.031 121.057 116.312 119.578 116.312C118.099 116.312 116.771 116.031 115.594 115.469C114.427 114.906 113.5 114.057 112.812 112.922C112.135 111.786 111.797 110.37 111.797 108.672V93.25H112.641V108.672C112.641 110.13 112.943 111.37 113.547 112.391C114.161 113.401 114.99 114.167 116.031 114.688C117.083 115.208 118.266 115.469 119.578 115.469C120.891 115.469 122.068 115.208 123.109 114.688C124.161 114.167 124.99 113.401 125.594 112.391C126.198 111.37 126.5 110.13 126.5 108.672V93.25ZM145.906 115.156V116H133.688V115.156H145.906ZM134.234 93.25V116H133.375V93.25H134.234Z" fill="white"/>
<path d="M86.8473 54.6583C86.8473 52.0663 83.0133 49.9643 79.9783 49.9643C76.9433 49.9643 73.1093 52.0653 73.1093 54.6583C73.1093 57.2513 76.7683 55.5831 79.8033 55.5831C82.8383 55.5831 86.8473 57.25 86.8473 54.6583Z" fill="black"/>
<path d="M79.9772 21.9583C75.4282 21.9583 70.9814 23.3072 67.1991 25.8345C63.4167 28.3618 60.4688 31.9539 58.728 36.1566C56.9871 40.3593 56.5317 44.9838 57.4191 49.4454C58.3066 53.9069 60.4971 58.0051 63.7137 61.2218C66.9303 64.4384 71.0285 66.6289 75.4901 67.5164C79.9517 68.4038 84.5762 67.9483 88.7789 66.2075C92.9816 64.4667 96.5737 61.5187 99.101 57.7364C101.628 53.9541 102.977 49.5073 102.977 44.9583C102.97 38.8604 100.545 33.0143 96.233 28.7024C91.9212 24.3906 86.075 21.9652 79.9772 21.9583V21.9583Z" fill="#FCEA2B"/>
<path d="M79.9771 33.7689C85.0468 33.7757 89.9727 35.4545 93.9914 38.5451C98.0101 41.6357 100.897 45.9656 102.205 50.8636C103.111 47.4578 103.221 43.8895 102.529 40.4342C101.836 36.9789 100.359 33.7289 98.2104 30.9352C96.0623 28.1415 93.301 25.8788 90.1396 24.3217C86.9782 22.7646 83.5012 21.9548 79.9772 21.9548C76.4531 21.9548 72.9762 22.7646 69.8148 24.3217C66.6533 25.8788 63.892 28.1415 61.7439 30.9352C59.5958 33.7289 58.1185 36.9789 57.4258 40.4342C56.7332 43.8895 56.8438 47.4578 57.7491 50.8636C59.0571 45.9656 61.9442 41.6357 65.9629 38.5451C69.9816 35.4545 74.9074 33.7757 79.9771 33.7689V33.7689Z" fill="#92D3F5"/>
<path d="M86.8471 54.6583C86.8471 52.0663 83.0131 49.9643 79.9781 49.9643C76.9431 49.9643 73.1091 52.0653 73.1091 54.6583C73.1091 57.2513 76.7681 55.5831 79.8031 55.5831C82.8381 55.5831 86.8471 57.25 86.8471 54.6583Z" fill="black"/>
<path d="M73.3564 31.669C71.5621 31.3381 69.7089 31.5975 68.0745 32.4085C66.4401 33.2194 65.1124 34.5382 64.2905 36.1671" stroke="black" stroke-width="2" stroke-linecap="round" stroke-linejoin="round"/>
<path d="M95.6639 36.1671C94.842 34.5382 93.5144 33.2194 91.88 32.4085C90.2455 31.5975 88.3923 31.3381 86.598 31.669" stroke="black" stroke-width="2" stroke-linecap="round" stroke-linejoin="round"/>
<path d="M79.9772 67.9583C92.6797 67.9583 102.977 57.6609 102.977 44.9583C102.977 32.2558 92.6797 21.9583 79.9772 21.9583C67.2746 21.9583 56.9772 32.2558 56.9772 44.9583C56.9772 57.6609 67.2746 67.9583 79.9772 67.9583Z" stroke="black" stroke-width="2" stroke-miterlimit="10"/>
<path d="M86.8471 54.6583C86.8471 52.0663 83.0131 49.9643 79.9781 49.9643C76.9431 49.9643 73.1091 52.0653 73.1091 54.6583C73.1091 57.2513 76.7681 55.5831 79.8031 55.5831C82.8381 55.5831 86.8471 57.25 86.8471 54.6583Z" stroke="black" stroke-width="2" stroke-miterlimit="10"/>
<path d="M73.9772 41.9583C73.9772 42.5516 73.8012 43.1317 73.4716 43.625C73.1419 44.1184 72.6734 44.5029 72.1252 44.7299C71.577 44.957 70.9738 45.0164 70.3919 44.9007C69.81 44.7849 69.2754 44.4992 68.8559 44.0796C68.4363 43.6601 68.1506 43.1255 68.0348 42.5436C67.9191 41.9616 67.9785 41.3584 68.2055 40.8102C68.4326 40.2621 68.8171 39.7935 69.3105 39.4639C69.8038 39.1342 70.3838 38.9583 70.9772 38.9583C71.7727 38.9586 72.5356 39.2748 73.0982 39.8373C73.6607 40.3998 73.9769 41.1627 73.9772 41.9583" fill="black"/>
<path d="M91.9772 41.9583C91.9772 42.5516 91.8012 43.1317 91.4716 43.625C91.1419 44.1184 90.6734 44.5029 90.1252 44.7299C89.577 44.957 88.9738 45.0164 88.3919 44.9007C87.81 44.7849 87.2754 44.4992 86.8559 44.0796C86.4363 43.6601 86.1506 43.1255 86.0348 42.5436C85.9191 41.9616 85.9785 41.3584 86.2055 40.8102C86.4326 40.2621 86.8171 39.7935 87.3105 39.4639C87.8038 39.1342 88.3838 38.9583 88.9772 38.9583C89.7727 38.9586 90.5356 39.2748 91.0982 39.8373C91.6607 40.3998 91.9769 41.1627 91.9772 41.9583" fill="black"/>
<rect x="0.5" y="0.5" width="159" height="149" rx="31.5" stroke="black"/>
</svg>
