<svg width="160" height="150" viewBox="0 0 160 150" fill="none" xmlns="http://www.w3.org/2000/svg">
<rect x="0.5" y="0.5" width="159" height="149" rx="31.5" fill="#6A6A6A"/>
<path d="M30.9688 93.25V116H30.125V93.25H30.9688ZM42.625 103.938V104.812H30.3594V103.938H42.625ZM44.2188 93.25V94.0938H30.3594V93.25H44.2188ZM62.2812 115.156V116H48.7344V115.156H62.2812ZM49.2812 93.25V116H48.4375V93.25H49.2812ZM60.6875 103.875V104.719H48.7344V103.875H60.6875ZM62.2812 93.25V94.0938H48.7344V93.25H62.2812ZM72.9531 116H67.4062L67.4375 115.156H72.9531C74.5885 115.156 76.0469 114.766 77.3281 113.984C78.6198 113.203 79.6354 112.125 80.375 110.75C81.125 109.375 81.5 107.797 81.5 106.016V103.188C81.5 101.865 81.2865 100.651 80.8594 99.5469C80.4323 98.4323 79.8333 97.4688 79.0625 96.6562C78.2917 95.8438 77.3854 95.2135 76.3438 94.7656C75.3021 94.3177 74.1719 94.0938 72.9531 94.0938H67.3125V93.25H72.9531C74.2969 93.25 75.5365 93.4896 76.6719 93.9688C77.8177 94.4479 78.8125 95.1302 79.6562 96.0156C80.5104 96.901 81.1719 97.9583 81.6406 99.1875C82.1094 100.406 82.3438 101.755 82.3438 103.234V106.016C82.3438 107.495 82.1094 108.849 81.6406 110.078C81.1719 111.297 80.5104 112.349 79.6562 113.234C78.8125 114.12 77.8177 114.802 76.6719 115.281C75.5365 115.76 74.2969 116 72.9531 116ZM67.5 93.25V116H66.6562V93.25H67.5ZM109.719 93.25H110.562V108.672C110.562 110.37 110.224 111.786 109.547 112.922C108.87 114.057 107.943 114.906 106.766 115.469C105.599 116.031 104.276 116.312 102.797 116.312C101.318 116.312 99.9896 116.031 98.8125 115.469C97.6458 114.906 96.7188 114.057 96.0312 112.922C95.3542 111.786 95.0156 110.37 95.0156 108.672V93.25H95.8594V108.672C95.8594 110.13 96.1615 111.37 96.7656 112.391C97.3802 113.401 98.2083 114.167 99.25 114.688C100.302 115.208 101.484 115.469 102.797 115.469C104.109 115.469 105.286 115.208 106.328 114.688C107.38 114.167 108.208 113.401 108.812 112.391C109.417 111.37 109.719 110.13 109.719 108.672V93.25ZM123.703 106.391H116.797V105.547H123.703C125.234 105.547 126.479 105.297 127.438 104.797C128.396 104.286 129.094 103.604 129.531 102.75C129.979 101.896 130.203 100.953 130.203 99.9219C130.203 98.849 129.979 97.875 129.531 97C129.094 96.1146 128.396 95.4115 127.438 94.8906C126.479 94.3594 125.234 94.0938 123.703 94.0938H117.438V116H116.594V93.25H123.703C125.318 93.25 126.667 93.526 127.75 94.0781C128.844 94.6302 129.667 95.4062 130.219 96.4062C130.771 97.3958 131.047 98.5573 131.047 99.8906C131.047 101.224 130.771 102.38 130.219 103.359C129.677 104.328 128.859 105.078 127.766 105.609C126.682 106.13 125.328 106.391 123.703 106.391Z" fill="white"/>
<path d="M80 22.1161C67.3177 22.1161 57 32.4338 57 45.1161C57 57.7983 67.3177 68.1161 80 68.1161C92.6822 68.1161 103 57.7983 103 45.1161C103 32.4338 92.6822 22.1161 80 22.1161Z" fill="#FCEA2B"/>
<path d="M80 68C92.7025 68 103 57.7025 103 45C103 32.2975 92.7025 22 80 22C67.2975 22 57 32.2975 57 45C57 57.7025 67.2975 68 80 68Z" stroke="black" stroke-width="2" stroke-miterlimit="10"/>
<path d="M67.64 36.87L75.568 39.301L67.706 42.549" stroke="black" stroke-width="2" stroke-miterlimit="10" stroke-linecap="round" stroke-linejoin="round"/>
<path d="M92.36 36.87L84.432 39.301L92.294 42.549" stroke="black" stroke-width="2" stroke-miterlimit="10" stroke-linecap="round" stroke-linejoin="round"/>
<path d="M67.9301 53.39L71.4631 50.494L75.3941 56.044L80.0021 52L84.6101 56.044L88.5541 50.494L92.0861 53.399V53.3883" stroke="black" stroke-width="2" stroke-linecap="round" stroke-linejoin="round"/>
<rect x="0.5" y="0.5" width="159" height="149" rx="31.5" stroke="black"/>
</svg>
