<svg width="160" height="150" viewBox="0 0 160 150" fill="none" xmlns="http://www.w3.org/2000/svg">
<rect x="0.5" y="0.5" width="159" height="149" rx="31.5" fill="#6A6A6A"/>
<path d="M80 22C67.3177 22 57 32.3177 57 45C57 57.6822 67.3177 68 80 68C92.6822 68 103 57.6822 103 45C103 32.3177 92.6822 22 80 22Z" fill="#FCEA2B"/>
<path d="M80 68C92.7025 68 103 57.7025 103 45C103 32.2975 92.7025 22 80 22C67.2975 22 57 32.2975 57 45C57 57.7025 67.2975 68 80 68Z" stroke="black" stroke-width="2" stroke-miterlimit="10"/>
<path d="M70.5 57C72.3768 53.1674 76.3239 50.8035 80.5 51C84.3343 51.1804 87.7926 53.4926 89.5 57" stroke="black" stroke-width="2" stroke-miterlimit="10" stroke-linecap="round" stroke-linejoin="round"/>
<path d="M74 40C74 41.6568 72.6552 43 71 43C69.3447 43 68 41.6567 68 40C68 38.3448 69.3447 37 71 37C72.6552 37 74 38.3448 74 40Z" fill="black"/>
<path d="M92 40C92 41.6568 90.6553 43 89 43C87.3447 43 86 41.6567 86 40C86 38.3448 87.3447 37 89 37C90.6553 37 92 38.3448 92 40Z" fill="black"/>
<path d="M67.75 110.547C67.75 109.828 67.625 109.188 67.375 108.625C67.125 108.062 66.724 107.557 66.1719 107.109C65.6198 106.661 64.8958 106.25 64 105.875C63.1146 105.5 62.026 105.135 60.7344 104.781C59.5781 104.469 58.5365 104.135 57.6094 103.781C56.6823 103.417 55.8906 103 55.2344 102.531C54.5885 102.062 54.0938 101.505 53.75 100.859C53.4062 100.203 53.2344 99.4167 53.2344 98.5C53.2344 97.6354 53.4219 96.8594 53.7969 96.1719C54.1823 95.4844 54.7135 94.901 55.3906 94.4219C56.0781 93.9427 56.8802 93.5781 57.7969 93.3281C58.7135 93.0677 59.7083 92.9375 60.7812 92.9375C62.2604 92.9375 63.5677 93.2188 64.7031 93.7812C65.8385 94.3438 66.7292 95.1302 67.375 96.1406C68.0312 97.1406 68.3594 98.3125 68.3594 99.6562H67.5156C67.5156 98.5312 67.2344 97.526 66.6719 96.6406C66.1094 95.7552 65.3229 95.0573 64.3125 94.5469C63.3125 94.0365 62.1354 93.7812 60.7812 93.7812C59.3542 93.7812 58.1406 94 57.1406 94.4375C56.1406 94.875 55.3802 95.4531 54.8594 96.1719C54.3385 96.8802 54.0781 97.6458 54.0781 98.4688C54.0781 99.0729 54.1823 99.6354 54.3906 100.156C54.6094 100.677 54.974 101.161 55.4844 101.609C55.9948 102.047 56.6979 102.464 57.5938 102.859C58.4896 103.245 59.6146 103.615 60.9688 103.969C62.0938 104.26 63.1198 104.589 64.0469 104.953C64.9844 105.318 65.7917 105.75 66.4688 106.25C67.1562 106.75 67.6823 107.349 68.0469 108.047C68.4219 108.734 68.6094 109.557 68.6094 110.516C68.6094 111.443 68.4062 112.266 68 112.984C67.6042 113.703 67.0521 114.312 66.3438 114.812C65.6354 115.302 64.8125 115.677 63.875 115.938C62.9479 116.188 61.9531 116.312 60.8906 116.312C59.9219 116.312 58.9427 116.198 57.9531 115.969C56.9635 115.74 56.0573 115.37 55.2344 114.859C54.4115 114.339 53.75 113.646 53.25 112.781C52.75 111.917 52.5 110.849 52.5 109.578H53.3438C53.3438 110.714 53.5781 111.661 54.0469 112.422C54.5156 113.182 55.125 113.786 55.875 114.234C56.6354 114.672 57.4531 114.99 58.3281 115.188C59.2135 115.375 60.0677 115.469 60.8906 115.469C62.224 115.469 63.4062 115.26 64.4375 114.844C65.4688 114.427 66.276 113.849 66.8594 113.109C67.4531 112.37 67.75 111.516 67.75 110.547ZM79.5938 93.9688L71.375 116H70.4531L78.9688 93.25H79.7812L79.5938 93.9688ZM87.5938 116L79.375 93.9688L79.2031 93.25H80L88.5156 116H87.5938ZM85.1875 108.359V109.203H73.7969V108.359H85.1875ZM98.4844 116H92.9375L92.9688 115.156H98.4844C100.12 115.156 101.578 114.766 102.859 113.984C104.151 113.203 105.167 112.125 105.906 110.75C106.656 109.375 107.031 107.797 107.031 106.016V103.188C107.031 101.865 106.818 100.651 106.391 99.5469C105.964 98.4323 105.365 97.4688 104.594 96.6562C103.823 95.8438 102.917 95.2135 101.875 94.7656C100.833 94.3177 99.7031 94.0938 98.4844 94.0938H92.8438V93.25H98.4844C99.8281 93.25 101.068 93.4896 102.203 93.9688C103.349 94.4479 104.344 95.1302 105.188 96.0156C106.042 96.901 106.703 97.9583 107.172 99.1875C107.641 100.406 107.875 101.755 107.875 103.234V106.016C107.875 107.495 107.641 108.849 107.172 110.078C106.703 111.297 106.042 112.349 105.188 113.234C104.344 114.12 103.349 114.802 102.203 115.281C101.068 115.76 99.8281 116 98.4844 116ZM93.0312 93.25V116H92.1875V93.25H93.0312Z" fill="white"/>
<rect x="0.5" y="0.5" width="159" height="149" rx="31.5" stroke="black"/>
</svg>
